# xmcd
#
# Track frame offsets:
#	150
#	18907
#	37446
#	54305
#	77731
#	98128
#	113230
#	132002
#
# Disc length: 1975 seconds
#
# Revision: 0
# Processed by: cddbd v1.5.1PL0 Copyright (c) Steve Scherf et al.
# Submitted via: dBpowerAMP V4.0
#
DISCID=6107b508
DTITLE=La Caja de Pandora - La Caja de Pandora
DYEAR=1900
DGENRE=
TTITLE0=Barrio
TTITLE1=Mañana pasarán los barrenderos
TTITLE2=Una de cal y una de arena
TTITLE3=Cuéntame
TTITLE4=A nuestra vida otra sentido
TTITLE5=No me preguntes dónde voy
TTITLE6=Te esperaé
TTITLE7=Ciudad despierta
EXTD=
EXTT0=
EXTT1=
EXTT2=
EXTT3=
EXTT4=
EXTT5=
EXTT6=
EXTT7=
PLAYORDER=
